<?xml version="1.0" ?><svg data-name="Layer 3" id="Layer_3" viewBox="0 0 32 32" xmlns="http://www.w3.org/2000/svg"><defs><style>.cls-1,.cls-2{fill:none;stroke:#ffffff;stroke-linecap:round;stroke-linejoin:round;}.cls-1{stroke-width:2px;}.cls-3{fill:#ffffff;}</style></defs><title/><line class="cls-1" x1="14" x2="25" y1="9" y2="9"/><path class="cls-2" d="M10,8.94A2.08,2.08,0,0,1,8,11,2.08,2.08,0,0,1,6,8.94a2,2,0,0,1,4,0Z"/><path class="cls-3" d="M10,8.94A2.08,2.08,0,0,1,8,11,2.08,2.08,0,0,1,6,8.94a2,2,0,0,1,4,0Z"/><line class="cls-1" x1="14" x2="25" y1="16" y2="16"/><path class="cls-2" d="M10,15.94A2.08,2.08,0,0,1,8,18a2.08,2.08,0,0,1-2-2.06,2,2,0,0,1,4,0Z"/><line class="cls-1" x1="14" x2="25" y1="23" y2="23"/><path class="cls-2" d="M10,22.94A2.08,2.08,0,0,1,8,25a2.08,2.08,0,0,1-2-2.06,2,2,0,0,1,4,0Z"/></svg>